<svg width="339" height="339" viewBox="0 0 339 339" fill="none" xmlns="http://www.w3.org/2000/svg">
<path d="M0 169.5C0 75.8877 75.8877 0 169.5 0V0C263.112 0 339 75.8877 339 169.5V169.5C339 263.112 263.112 339 169.5 339V339C75.8877 339 0 263.112 0 169.5V169.5Z" fill="#FF5C00"/>
<path d="M273.103 109.673C273.184 144.087 265.751 178.667 247.176 208.593L247.175 208.596C231.385 234.735 207.838 256.319 180.81 272.668L180.809 272.669C176.856 275.084 172.811 277.405 168.673 279.684C168.564 279.744 168.516 279.874 168.559 279.99C168.603 280.106 168.725 280.173 168.846 280.147C187.656 276.11 205.462 267.728 221.042 256.601C228.776 251.129 236.136 244.551 242.542 237.743L242.543 237.742C256.729 222.507 267.276 204.404 273.406 185.106L273.407 185.103C280.812 160.614 281.752 134.022 273.599 109.617C273.579 109.5 273.476 109.41 273.353 109.411C273.215 109.411 273.103 109.523 273.103 109.661V109.661L273.103 109.673Z" fill="white" stroke="white" stroke-width="0.5" stroke-linejoin="round"/>
<path d="M169.309 279.338C169.228 279.435 169.231 279.577 169.316 279.669C169.402 279.762 169.543 279.777 169.645 279.703C230.714 236.045 242.745 151.008 194.012 94.8104C187.524 87.3207 180.285 80.3777 172.026 74.7862C171.923 74.7163 171.784 74.7332 171.701 74.8258C171.617 74.9184 171.615 75.0584 171.695 75.1539C177.988 82.6553 183.573 90.4942 188.533 98.6213L188.534 98.6227C225.846 158.828 214.867 225.632 169.309 279.338Z" fill="white" stroke="white" stroke-width="0.5" stroke-linejoin="round"/>
<path d="M67.4776 245.236C67.5155 245.354 67.6331 245.426 67.7547 245.406C67.8764 245.387 67.9658 245.282 67.9655 245.159C67.8852 210.738 75.0711 176.151 93.0287 146.227L93.0302 146.225C108.294 120.084 131.056 98.4992 157.182 82.1506L157.183 82.1499C161.003 79.7348 164.913 77.4136 168.914 75.1346C169.021 75.0734 169.068 74.9428 169.023 74.8274C168.979 74.712 168.856 74.6465 168.736 74.6733C150.55 78.7111 133.336 87.0947 118.274 98.2231C110.798 103.695 103.683 110.274 97.4901 117.082L97.4892 117.083C83.7762 132.319 73.5809 150.423 67.6552 169.721L67.6543 169.724C60.4946 194.223 59.5878 220.825 67.4776 245.236Z" fill="white" stroke="white" stroke-width="0.5" stroke-linejoin="round"/>
<path d="M169.193 74.6114C169.275 74.5152 169.272 74.3732 169.187 74.2804C169.101 74.1876 168.96 74.173 168.857 74.2463C107.781 117.911 98.5227 203.828 147.248 260.01C153.737 267.499 160.975 274.442 169.234 280.034C169.337 280.104 169.476 280.087 169.56 279.994C169.643 279.902 169.646 279.762 169.566 279.666C163.273 272.165 157.688 264.326 152.727 256.199L152.726 256.197C115.41 195.984 123.642 128.31 169.193 74.6114Z" fill="white" stroke="white" stroke-width="0.5" stroke-linejoin="round"/>
</svg>
